Patient4_TMGait_0pt5_02_right_20_EMG.mot
version=1
nRows=16
nColumns=33
inDegrees=no
endheader
time	1LAddLong	2LGlutMax	3LGlutMed	4LIliopsoas	5LSemiMemb	6LBicFemLong	7LRecFem	8LVastMed	9LVastLat	10LGasMed	11LTibAnt	12lTibPost	13LPeroneusLong	14LSol	15LExtDigLong	16LFlexDigLong	17RAddLong	18RGlutMax	19RGlutMed	20RIliopsoas	21RSemiMemb	22RBicFemLong	23RRecFem	24RVastMed	25RVastLat	26RGasMed	27RTibAnt	28RTibPost	29RPeroneusLong	30RSol	31RExtDigLong	32RFlexDigLong
25.95	-0.02533	-0.10346	0.001526	0.007477	0.042877	0.31876	0.058594	0.019989	-0.078735	-0.16251	0.019684	-0.006104	-0.17914	0.42038	0.034332	-0.13062	-0.086975	-0.17624	-0.15869	-0.12146	0.066223	0.036926	0.56168	0.051422	0.053864	-0.012665	-0.75089	0.000916	0.18539	0.11444	-0.003967	0.002747
25.951	-0.037384	-0.048523	-0.001221	0.005035	-0.1442	0.41962	0.08255	0.027008	-0.067902	-0.022888	0.03418	-0.002594	0.055542	0.3627	-0.002441	-0.093079	-0.09491	-0.11017	-0.099182	-0.103	0.070343	0.040588	0.43549	-0.086823	0.015869	-0.021973	-0.43106	-0.003052	-0.12039	0.23895	-0.007324	-0.005035
25.952	-0.029602	-0.047455	0.038605	0.008698	-0.19791	0.4039	0.055389	0.020599	-0.015717	0.12116	0.054474	-0.013123	0.033264	0.21042	0.023041	-0.03418	-0.083923	-0.08606	-0.055847	0.04425	0.082855	0.065613	0.02182	-0.06958	-0.005951	-0.023346	-0.21561	0.000458	-0.21973	0.21668	-0.007324	-0.003052
25.953	-0.016479	-0.11246	-0.11475	0.008698	-0.21118	0.4274	0.050507	0.022278	0.065308	0.14481	0.062256	-0.011139	-0.20599	0.12543	0.068665	-0.007629	-0.038147	-0.14038	-0.041199	0.16907	0.076141	0.06897	-0.45853	-0.088348	0.003662	-0.018463	0.073395	0.001831	-0.19363	0.097351	-0.006256	0.01236
25.954	-0.002594	-0.23804	-0.25803	0.014343	-0.14145	0.39932	-0.028076	0.019989	0.095062	0.006714	0.078278	-0.014191	-0.3157	0.11704	0.11826	0.012512	-0.025177	-0.12878	-0.072327	0.20142	0.075989	0.075073	-1.0094	-0.085144	-0.008545	-0.005341	0.60562	0.006256	-0.21744	0.013733	-0.004272	0.001526
25.955	0.027618	-0.26428	-0.2211	0.024261	0.030365	0.23712	-0.043182	-0.007172	0.11948	-0.006409	0.059509	-0.016022	-0.24582	0.13641	0.11658	0.005798	-0.018463	-0.12756	-0.015869	0.11856	0.087738	0.1059	-1.033	-0.23224	-0.028381	-0.002136	0.30456	0.008545	-0.16678	-0.10239	-0.00351	0.002747
25.956	0.04425	-0.21652	-0.20584	0.016937	0.11765	0.012817	-0.014648	-0.008698	0.11139	-0.061035	-0.017395	-0.011749	-0.097046	0.26398	0.069122	-0.002136	0.014343	-0.12573	0.1297	-0.021057	0.084839	0.090332	-0.77515	-0.27832	-0.036926	0.009766	-0.32044	0.006714	0.029907	-0.1004	-0.004425	0.013275
25.957	0.025024	-0.21088	-0.23789	0.012817	0.14404	-0.10468	0.027924	-0.005646	0.11383	-0.042267	-0.054321	-0.021057	0.28595	0.2359	-0.064087	0.003967	0.065002	-0.11978	0.23132	-0.078735	0.074615	0.068512	-0.64743	-0.24338	-0.021973	0.001221	0.027161	0.006256	0.096741	0.022736	-0.003967	0.000305
25.958	0.00885	-0.16632	0.085602	0.022278	0.1152	-0.17181	0.046997	-0.002747	0.071259	0.024719	-0.015717	-0.008392	0.66132	0.13931	-0.24338	0.02121	0.07782	-0.021515	0.32044	-0.1239	0.078125	0.034943	-0.52139	-0.23895	-0.009613	0.007324	0.15106	0.004272	0.18753	0.13916	-0.006561	0.006409
25.959	0.010986	-0.15747	0.060577	0.007935	0.085144	-0.19119	0.019684	0.000305	0.064697	0.003967	0.02594	-0.015106	0.71381	0.11093	-0.40298	0.001984	0.076294	-0.044861	0.087738	-0.083008	0.074615	0.001831	-0.2681	-0.17563	-0.00061	-0.009308	-0.095978	0.002594	0.1384	0.19348	-0.002747	0.006256
25.96	0.000305	-0.19363	-0.099945	0.020294	0.032501	-0.14893	0.029907	0.006714	0.04364	-0.001984	0.084534	-0.007477	-0.53894	-0.011292	-0.36819	0.002136	0.050812	-0.14557	-0.11398	-0.12299	0.068817	-0.020447	0.13016	0.001678	0.013275	-0.008545	-0.20294	0.005341	0.050354	0.098877	-0.005493	0.003204
25.961	0.005188	-0.13062	-0.00946	-0.010376	-0.040588	-0.11917	0.037994	0.006104	0.043945	-0.059509	0.049133	-0.008392	-0.63156	-0.076904	-0.18326	0.005341	0.031738	-0.067291	-0.02121	-0.18249	0.054932	-0.045929	0.46371	0.16525	0.055389	-0.017395	0.20874	-0.000305	-0.027313	0.11429	-0.001373	-0.004272
25.962	0.016632	-0.093536	0.14984	-0.017395	-0.05661	-0.30746	0.019836	0.001373	0.035248	-0.10803	0.006866	-0.007935	-0.47684	0.058441	0.087128	0.010376	-0.001068	-0.03891	0.1767	-0.20126	0.049133	-0.045776	0.48523	0.30579	0.060577	-0.019531	0.58518	0.002899	-0.090485	0.1329	-0.007782	-0.000153
25.963	0.018463	-0.11673	-0.03067	0.008087	-0.000458	-0.12085	0.043945	0.006256	0.047913	-0.15045	-0.023804	-0.008698	-0.32684	0.15656	0.26306	0.023041	-0.020905	-0.10712	0.22812	-0.16907	0.0383	-0.082855	0.6134	0.28168	0.059967	-0.024109	0.63004	0.003204	-0.10819	0.09079	-0.003204	0.010529
25.964	0.007477	-0.112	-0.089569	0.024261	0.007629	-0.026703	0.032349	0.00473	0.044556	-0.32486	-0.049286	-0.00946	-0.14053	0.11963	0.26764	0.007782	-0.033875	-0.08606	0.29907	-0.051117	0.028229	-0.057831	0.72647	0.25772	0.049591	-0.008545	0.25726	0.005035	-0.026398	0.006714	-0.007324	0.017395
25.965	0.007019	-0.027618	0.062866	0.001526	-0.00824	-0.021057	0.020599	0.005798	0.047455	-0.30106	-0.092621	0.018158	-0.027008	0.060577	0.18829	0.019531	-0.025177	-0.087585	0.18036	-0.046082	0.040283	-0.042267	0.79132	0.26291	0.041656	-0.007477	-0.17456	0.003815	0.012512	-0.019989	-0.003967	0.009766
